<?xml version="1.0" encoding="utf-8"?>
<!-- Generator: Adobe Illustrator 21.1.0, SVG Export Plug-In . SVG Version: 6.00 Build 0)  -->
<svg version="1.1" id="Layer_1" xmlns="http://www.w3.org/2000/svg" xmlns:xlink="http://www.w3.org/1999/xlink" x="0px" y="0px"
	 viewBox="0 0 32 32" style="enable-background:new 0 0 32 32;" xml:space="preserve">
<style type="text/css">
	.st0{fill:#E9262C;}
</style>
<title>unique-data</title>
<path class="st0" d="M28.4,0.1c-1.9,0-3.4,1.6-3.4,3.5c0,0.6,0.1,1.1,0.4,1.6l-5.7,5.7c-1.7-1.3-4-1.3-5.6,0L9.7,6.4
	C9.9,6.1,10,5.7,10,5.3C10,4,9,3,7.7,3C6.4,3,5.4,4,5.4,5.3c0,1.3,1,2.3,2.3,2.3c0.4,0,0.8-0.1,1.2-0.3l4.4,4.4
	c-1.3,1.7-1.3,4,0,5.6L6,24.6c-1.4-1.3-3.6-1.1-4.8,0.3S0,28.4,1.4,29.7s3.6,1.1,4.8-0.3c1-1.1,1.1-2.6,0.5-3.9l7.4-7.4
	c0.7,0.5,1.4,0.8,2.3,0.9v5.9c-1.9,0.3-3.1,2.1-2.8,4c0.3,1.9,2.1,3.1,4,2.8c1.9-0.3,3.1-2.1,2.8-4c-0.2-1.4-1.4-2.6-2.8-2.8v-5.9
	c0.8-0.1,1.6-0.4,2.3-0.9l4.4,4.4c-0.2,0.4-0.3,0.8-0.3,1.2c0,1.3,1,2.3,2.3,2.3s2.3-1,2.3-2.3c0-1.3-1-2.3-2.3-2.3h0
	c-0.4,0-0.8,0.1-1.2,0.3l-4.4-4.4c1.3-1.7,1.3-4,0-5.6l5.6-5.6c1.4,1.3,3.6,1.2,4.9-0.2c1.3-1.4,1.2-3.6-0.2-4.9
	C30.1,0.5,29.3,0.1,28.4,0.1L28.4,0.1z M6.5,5.3c0-0.6,0.5-1.2,1.1-1.2c0.6,0,1.2,0.5,1.2,1.1S8.3,6.4,7.7,6.4c0,0,0,0,0,0
	C7.1,6.4,6.5,5.9,6.5,5.3z M3.7,29.5c-1.3,0-2.3-1-2.3-2.3c0-1.3,1-2.3,2.3-2.3s2.3,1,2.3,2.3l0,0C6,28.4,4.9,29.5,3.7,29.5z
	 M19.2,28.3c0,1.3-1,2.3-2.3,2.3c-1.3,0-2.3-1-2.3-2.3c0-1.3,1-2.3,2.3-2.3h0C18.2,26,19.2,27,19.2,28.3z M16.9,17.9
	c-1.9,0-3.5-1.5-3.4-3.4c0-1.9,1.5-3.4,3.5-3.4c1.9,0,3.4,1.5,3.4,3.4C20.4,16.4,18.8,17.9,16.9,17.9z M27.3,23.7
	c0,0.6-0.5,1.1-1.1,1.1S25,24.4,25,23.7c0-0.6,0.5-1.1,1.1-1.1l0,0C26.7,22.6,27.3,23.1,27.3,23.7z M28.4,5.9c-1.3,0-2.3-1-2.3-2.3
	s1-2.3,2.3-2.3c1.3,0,2.3,1,2.3,2.3c0,0,0,0,0,0C30.7,4.8,29.7,5.9,28.4,5.9z"/>
</svg>
