<?xml version="1.0" encoding="utf-8"?>
<!-- Generator: Adobe Illustrator 21.1.0, SVG Export Plug-In . SVG Version: 6.00 Build 0)  -->
<svg version="1.1" id="Layer_1" xmlns="http://www.w3.org/2000/svg" xmlns:xlink="http://www.w3.org/1999/xlink" x="0px" y="0px"
	 viewBox="0 0 27.8 29.8" style="enable-background:new 0 0 27.8 29.8;" xml:space="preserve">
<style type="text/css">
	.st0{fill:#E9262C;stroke:#EC1C24;stroke-width:0.25;stroke-miterlimit:10;}
	.st1{fill:#E9262C;}
</style>
<title>accurate-data</title>
<path class="st0" d="M14.2,28.3h-0.5V28h0.5V28.3z M14.2,27h-0.5v-0.9h0.5V27z M14.2,25.2h-0.5v-0.9h0.5V25.2z M14.2,23.3h-0.5v-0.9
	h0.5V23.3z M14.2,21.5h-0.5v-0.9h0.5V21.5z M14.2,19.6h-0.5v-0.9h0.5V19.6z M14.2,17.8h-0.5v-0.9h0.5V17.8z M14.2,15.9h-0.5V15h0.5
	V15.9z M14.2,14.1h-0.5v-0.9h0.5V14.1z M14.2,12.2h-0.5v-0.9h0.5V12.2z M14.2,10.3h-0.5V9.4h0.5V10.3z M14.2,8.5h-0.5V7.6h0.5V8.5z
	 M14.2,6.6h-0.5V5.7h0.5V6.6z M14.2,4.8h-0.5V3.9h0.5V4.8z M14.2,2.9h-0.5V2h0.5V2.9z"/>
<path class="st0" d="M2.5,7.8L2.3,7.4l0.9-0.4l0.2,0.4L2.5,7.8z M4.2,6.9L4,6.5l0.9-0.4l0.2,0.4L4.2,6.9z M6,6L5.8,5.6l0.9-0.4
	l0.2,0.4L6,6z M7.7,5.1L7.5,4.7l0.9-0.4l0.2,0.4L7.7,5.1z M9.5,4.2L9.2,3.8l0.9-0.4l0.2,0.4L9.5,4.2z M11.2,3.4L11,2.9l0.9-0.5
	l0.2,0.4L11.2,3.4z M13,2.5l-0.2-0.4h0.1L13,2.5L13,2.5z"/>
<path class="st0" d="M24.4,7.4L23.5,7l0.2-0.4L24.6,7L24.4,7.4z M22.6,6.5l-0.9-0.5L22,5.7l0.9,0.5L22.6,6.5z M20.9,5.6L20,5.2
	l0.2-0.4l0.9,0.5L20.9,5.6z M19.1,4.7l-0.9-0.5l0.2-0.4l0.9,0.5L19.1,4.7z M17.4,3.8l-0.9-0.5l0.2-0.4l0.9,0.5L17.4,3.8z M15.6,2.9
	l-0.9-0.5L15,2l0.9,0.5L15.6,2.9z"/>
<path class="st0" d="M15.5,14.5l-0.2-0.4l0.8-0.4l0.2,0.4L15.5,14.5z M17,13.6l-0.2-0.4l0.7-0.5l0.2,0.4L17,13.6z M18.5,12.7
	l-0.2-0.4l0.8-0.4l0.2,0.4L18.5,12.7z M20,11.8l-0.2-0.4l0.8-0.4l0.2,0.4L20,11.8z M21.5,10.9l-0.2-0.4l0.8-0.4l0.2,0.4L21.5,10.9z
	 M23,10l-0.2-0.4l0.8-0.4l0.2,0.4L23,10z M24.5,9.1l-0.2-0.4l0.8-0.4l0.2,0.4L24.5,9.1z"/>
<path class="st0" d="M13.2,14.9l-0.7-0.4l0.2-0.4l0.8,0.4L13.2,14.9z M11.7,14l-0.8-0.4l0.2-0.4l0.8,0.4L11.7,14z M10.1,13.1
	l-0.8-0.4l0.2-0.4l0.8,0.4L10.1,13.1z M8.6,12.3l-0.8-0.4l0.2-0.4l0.8,0.4L8.6,12.3z M7.1,11.4L6.3,11l0.2-0.4L7.3,11L7.1,11.4z
	 M5.5,10.5l-0.8-0.4L5,9.7l0.8,0.4L5.5,10.5z M4,9.7L3.2,9.3l0.2-0.4l0.8,0.4L4,9.7z M2.5,8.8L2.3,8.7l0.2-0.4l0.2,0.1L2.5,8.8z"/>
<path class="st0" d="M26.4,22.7h-0.5v-0.5h0.5V22.7z M26.4,21.3h-0.5v-0.9h0.5V21.3z M26.4,19.6h-0.5v-0.9h0.5V19.6z M26.4,17.8
	h-0.5v-0.9h0.5V17.8z M26.4,16h-0.5v-0.9h0.5V16z M26.4,14.3h-0.5v-0.9h0.5V14.3z M26.4,12.5h-0.5v-0.9h0.5V12.5z M26.4,10.7h-0.5
	V9.9h0.5V10.7z M26.4,9h-0.5V8.1h0.5V9z"/>
<path class="st0" d="M1.9,22.7H1.5v-0.5h0.5L1.9,22.7z M1.9,21.3H1.5v-0.9h0.5L1.9,21.3z M1.9,19.6H1.5v-0.9h0.5L1.9,19.6z
	 M1.9,17.8H1.5v-0.9h0.5L1.9,17.8z M1.9,16H1.5v-0.9h0.5L1.9,16z M1.9,14.3H1.5v-0.9h0.5L1.9,14.3z M1.9,12.5H1.5v-0.9h0.5L1.9,12.5
	z M1.9,10.7H1.5V9.9h0.5L1.9,10.7z M1.9,9H1.5V8.1h0.5L1.9,9z"/>
<path class="st0" d="M3,20.7l-0.2-0.4l0.9-0.5l0.2,0.4L3,20.7z M4.7,19.8l-0.2-0.4L5.5,19l0.2,0.4L4.7,19.8z M6.5,19l-0.2-0.4
	l0.9-0.5l0.2,0.4L6.5,19z M8.2,18.1L8,17.7l0.9-0.5l0.2,0.4L8.2,18.1z M10,17.2l-0.2-0.4l0.9-0.5l0.2,0.4L10,17.2z M11.7,16.3
	l-0.2-0.4l0.9-0.4l0.2,0.4L11.7,16.3z"/>
<path class="st0" d="M24.7,20.7l-0.9-0.5l0.2-0.4l0.9,0.5L24.7,20.7z M22.9,19.8L22,19.4l0.2-0.4l0.9,0.5L22.9,19.8z M21.2,18.9
	l-0.9-0.5l0.2-0.4l0.9,0.5L21.2,18.9z M19.4,18l-0.9-0.5l0.2-0.4l0.9,0.5L19.4,18z M17.7,17.1l-0.9-0.4l0.2-0.4l0.9,0.5L17.7,17.1z
	 M15.9,16.2L15,15.8l0.2-0.4l0.9,0.5L15.9,16.2z"/>
<path class="st0" d="M15.1,27.8l-0.2-0.4l0.8-0.5l0.2,0.4L15.1,27.8z M16.6,26.9l-0.2-0.4l0.8-0.5l0.2,0.4L16.6,26.9z M18.1,26.1
	l-0.2-0.4l0.8-0.5l0.2,0.4L18.1,26.1z M19.7,25.2l-0.2-0.4l0.8-0.5l0.3,0.4L19.7,25.2z M21.2,24.3L21,23.9l0.8-0.5l0.2,0.4
	L21.2,24.3z M22.7,23.4L22.5,23l0.8-0.5l0.2,0.4L22.7,23.4z M24.2,22.5L24,22.1l0.8-0.5L25,22L24.2,22.5z"/>
<path class="st0" d="M13.1,28.1l-0.8-0.4l0.2-0.4l0.8,0.4L13.1,28.1z M11.6,27.2l-0.8-0.4l0.2-0.4l0.8,0.4L11.6,27.2z M10.1,26.3
	l-0.8-0.4l0.2-0.4l0.8,0.4L10.1,26.3z M8.5,25.4L7.8,25L8,24.6L8.8,25L8.5,25.4z M7,24.6l-0.8-0.4l0.2-0.4l0.8,0.4L7,24.6z
	 M5.5,23.7l-0.8-0.4l0.2-0.4l0.8,0.4L5.5,23.7z M3.9,22.8l-0.8-0.4L3.4,22l0.8,0.4L3.9,22.8z M2.5,21.9l-0.1-0.1l0.2-0.4l0.1,0.1
	L2.5,21.9z"/>
<circle class="st1" cx="26.2" cy="22.4" r="1.6"/>
<circle class="st1" cx="1.7" cy="22.4" r="1.6"/>
<circle class="st1" cx="13.9" cy="15" r="1.6"/>
<circle class="st1" cx="13.9" cy="1.6" r="1.6"/>
<circle class="st1" cx="13.9" cy="28.1" r="1.6"/>
<circle class="st1" cx="1.7" cy="7.9" r="1.6"/>
<circle class="st1" cx="26.2" cy="7.9" r="1.6"/>
</svg>
