<svg id="Layer_1" data-name="Layer 1" xmlns="http://www.w3.org/2000/svg" viewBox="0 0 27.6 29.64"><defs><style>.cls-1,.cls-2{fill:#e9262c;}.cls-1{stroke:#ec1c24;stroke-miterlimit:10;stroke-width:0.25px;}</style></defs><title>accurate-data</title><path class="cls-1" d="M14.71,28.62h-.46v-.34h.46Zm0-1.27h-.46v-.93h.46Zm0-1.86h-.46v-.93h.46Zm0-1.85h-.46v-.93h.46Zm0-1.86h-.46v-.93h.46Zm0-1.85h-.46V19h.46Zm0-1.86h-.46v-.93h.46Zm0-1.86h-.46v-.93h.46Zm0-1.85h-.46v-.93h.46Zm0-1.86h-.46v-.93h.46Zm0-1.86h-.46V9.72h.46Zm0-1.85h-.46V7.87h.46Zm0-1.86h-.46V6h.46Zm0-1.86h-.46V4.16h.46Zm0-1.85h-.46V2.3h.46Z" transform="translate(-0.67 -0.38)"/><path class="cls-1" d="M3,8.12,2.81,7.7l.88-.45.21.41Zm1.75-.89-.21-.41.88-.45.21.41Zm1.76-.89-.21-.41.88-.45.21.41Zm1.75-.89L8.08,5,9,4.58,9.17,5ZM10,4.55l-.21-.41.88-.45.21.41Zm1.75-.89-.21-.41.88-.45.21.41Zm1.76-.89-.21-.41.06,0,.21.41Z" transform="translate(-0.67 -0.38)"/><path class="cls-1" d="M24.93,7.74l-.87-.46.21-.41.87.46Zm-1.75-.91-.87-.46L22.52,6l.87.46Zm-1.75-.91-.87-.46.21-.41.87.46ZM19.69,5l-.87-.46L19,4.14l.87.46ZM17.94,4.1l-.87-.46.21-.41.87.46Zm-1.75-.91-.87-.46.21-.41.87.46Z" transform="translate(-0.67 -0.38)"/><path class="cls-1" d="M16,14.76l-.23-.4.76-.45.23.4Zm1.52-.89-.23-.4L18,13l.23.4ZM19,13l-.23-.4.76-.45.23.4Zm1.52-.89-.23-.4.76-.45.23.4Zm1.52-.89-.23-.4.76-.45.23.4Zm1.52-.89-.23-.4.76-.45.23.4Zm1.52-.89L24.87,9l.76-.45.23.4Z" transform="translate(-0.67 -0.38)"/><path class="cls-1" d="M13.73,15.18,13,14.74l.23-.41.76.43Zm-1.53-.87-.76-.43.23-.41.76.43Zm-1.53-.87L9.9,13l.23-.41.76.43Zm-1.53-.86-.76-.43.23-.41.76.43ZM7.6,11.71l-.76-.43.23-.41.76.43Zm-1.53-.87-.76-.43L5.53,10l.76.43ZM4.53,10l-.76-.43L4,9.14l.76.43ZM3,9.11,2.8,9,3,8.59l.2.12Z" transform="translate(-0.67 -0.38)"/><path class="cls-1" d="M26.93,23h-.46v-.5h.46Zm0-1.38h-.46v-.88h.46Zm0-1.76h-.46v-.88h.46Zm0-1.76h-.46v-.88h.46Zm0-1.76h-.46v-.88h.46Zm0-1.77h-.46v-.88h.46Zm0-1.76h-.46v-.88h.46Zm0-1.76h-.46v-.88h.46Zm0-1.76h-.46V8.36h.46Z" transform="translate(-0.67 -0.38)"/><path class="cls-1" d="M2.48,23H2v-.5h.46Zm0-1.38H2v-.88h.46Zm0-1.76H2v-.88h.46Zm0-1.76H2v-.88h.46Zm0-1.76H2v-.88h.46Zm0-1.77H2v-.88h.46Zm0-1.76H2v-.88h.46Zm0-1.76H2v-.88h.46Zm0-1.76H2V8.36h.46Z" transform="translate(-0.67 -0.38)"/><path class="cls-1" d="M3.54,21l-.21-.41.87-.45.21.41Zm1.75-.89-.21-.41L6,19.3l.21.41ZM7,19.26l-.21-.41.87-.45.21.41Zm1.75-.89L8.59,18l.87-.45.21.41Zm1.75-.89-.21-.41.87-.45.21.41Zm1.75-.89-.21-.42.87-.45.21.41Z" transform="translate(-0.67 -0.38)"/><path class="cls-1" d="M25.2,21l-.87-.45.21-.41.87.45Zm-1.75-.89-.87-.45.21-.41.87.45Zm-1.75-.89-.87-.45.21-.41.87.45Zm-1.75-.89-.87-.45.21-.41.87.45Zm-1.75-.89L17.31,17l.21-.41.87.45Zm-1.75-.89-.87-.45.21-.41.87.45Z" transform="translate(-0.67 -0.38)"/><path class="cls-1" d="M15.65,28.14l-.23-.4.76-.45.23.4Zm1.52-.89-.23-.4.76-.45.23.4Zm1.52-.89-.23-.4.76-.45.23.4Zm1.52-.89-.23-.4.76-.45L21,25Zm1.53-.89-.23-.4.76-.45.23.4Zm1.52-.89-.23-.4.76-.45.23.4Zm1.52-.89-.23-.4.76-.45.23.4Z" transform="translate(-0.67 -0.38)"/><path class="cls-1" d="M13.66,28.37l-.76-.44.23-.4.76.44Zm-1.53-.87-.76-.44.23-.4.76.44Zm-1.53-.88-.76-.44.23-.4.76.44Zm-1.53-.87-.76-.44.23-.4.76.44Zm-1.53-.88-.76-.44L7,24l.76.44ZM6,24l-.76-.44.23-.4.76.44Zm-1.53-.88-.76-.44.23-.4.76.44ZM3,22.23l-.14-.08.23-.4.14.08Z" transform="translate(-0.67 -0.38)"/><circle class="cls-2" cx="26.03" cy="22.37" r="1.57"/><circle class="cls-2" cx="1.57" cy="22.37" r="1.57"/><circle class="cls-2" cx="13.8" cy="14.91" r="1.57"/><circle class="cls-2" cx="13.8" cy="1.57" r="1.57"/><circle class="cls-2" cx="13.8" cy="28.06" r="1.57"/><circle class="cls-2" cx="1.57" cy="7.78" r="1.57"/><circle class="cls-2" cx="26.03" cy="7.78" r="1.57"/></svg>