<?xml version="1.0" encoding="utf-8"?>
<!-- Generator: Adobe Illustrator 21.1.0, SVG Export Plug-In . SVG Version: 6.00 Build 0)  -->
<svg version="1.1" id="Layer_1" xmlns="http://www.w3.org/2000/svg" xmlns:xlink="http://www.w3.org/1999/xlink" x="0px" y="0px"
	 viewBox="0 0 28.3 26.4" style="enable-background:new 0 0 28.3 26.4;" xml:space="preserve">
<style type="text/css">
	.st0{fill:#E9262C;stroke:#E9262C;stroke-width:0.247;stroke-miterlimit:10;}
	.st0 {
	  stroke: #e9262c;
	  stroke-width: 0.1;
	  stroke-dasharray: 1000; 
	  stroke-dashoffset: 1000;
	  animation: offset 10s linear forwards, fill-it 1s 1s forwards;
	}

	@keyframes offset {
	  100% {
	    stroke-dashoffset: 0; 
	  }  
	}

	@keyframes fill-it {
	  100% {
	    fill: #e9262c; 
	  }
	}
</style>
<title>crossmatrix</title>
<path class="st0" d="M26.7,12.7V2.4c0-1.3-1.1-2.3-2.3-2.3H3.9c-1.3,0-2.3,1-2.3,2.3v7c-0.8,0-1.4,0.6-1.4,1.4v14
	c0,0.8,0.6,1.4,1.4,1.4c0,0,0,0,0,0h10.2c0.8,0,1.4-0.6,1.4-1.4l0,0h2c0.8,0,1.4-0.7,1.4-1.4c0-0.1,0-0.2-0.1-0.3l-0.9-3.4h2.7v5.1
	c0,0.8,0.6,1.4,1.4,1.4l0,0h5.1c0.8,0,1.4-0.6,1.4-1.4V14.1C28.1,13.3,27.5,12.7,26.7,12.7L26.7,12.7z M27.2,14.1V15h-6.1v-0.9
	c0-0.3,0.2-0.5,0.5-0.5h5.1C27,13.6,27.2,13.8,27.2,14.1z M21.1,15.9h6.1v7h-6.1V15.9z M2.5,2.4C2.5,1.7,3.1,1,3.9,1h20.5
	c0.8,0,1.4,0.6,1.4,1.4l0,0v10.2h-4.2c-0.8,0-1.4,0.6-1.4,1.4l0,0V15h-7v-4.2c0-0.8-0.6-1.4-1.4-1.4l0,0H2.5V2.4z M12.3,22.9H1.1
	V12.7h11.2V22.9z M1.6,10.4h10.3c0.3,0,0.5,0.2,0.5,0.5c0,0,0,0,0,0v0.9H1.1v-0.9C1.1,10.6,1.3,10.4,1.6,10.4
	C1.6,10.4,1.6,10.4,1.6,10.4z M11.8,25.3H1.6c-0.3,0-0.5-0.2-0.5-0.5v-1h11.2v1C12.3,25.1,12.1,25.3,11.8,25.3z M17.5,23.7
	c-0.1,0.1-0.2,0.2-0.4,0.2h-4v-0.9h2.3l0.1,0.3C17.6,23.4,17.6,23.6,17.5,23.7z M17.2,22h-4v-2.3h3.4L17.2,22z M13.2,18.8v-2.8h7
	v2.8L13.2,18.8z M26.7,25.3h-5.1c-0.3,0-0.5-0.2-0.5-0.5v-1h6.1v1C27.2,25.1,27,25.3,26.7,25.3L26.7,25.3z"/>
<rect x="2.6" y="18.3" transform="matrix(0.7071 -0.7071 0.7071 0.7071 -12.1222 8.2302)" class="st0" width="2.6" height="0.9"/>
<rect x="3.6" y="17.8" transform="matrix(0.7071 -0.7071 0.7071 0.7071 -10.6935 10.7265)" class="st0" width="7.9" height="0.9"/>
<rect x="5.2" y="15" transform="matrix(0.7071 -0.7071 0.7071 0.7071 -8.855 9.5829)" class="st0" width="4" height="0.9"/>
<rect x="22" y="18" transform="matrix(0.7071 -0.7071 0.7071 0.7071 -6.1522 22.1672)" class="st0" width="3.3" height="0.9"/>
<rect x="23" y="19.9" transform="matrix(0.7071 -0.7071 0.7071 0.7071 -7.2014 23.3778)" class="st0" width="3.3" height="0.9"/>
<rect x="12.2" y="6.6" transform="matrix(0.7071 -0.7071 0.7071 0.7071 -0.8781 12.0672)" class="st0" width="4" height="0.9"/>
<rect x="16.4" y="5.7" transform="matrix(0.7071 -0.7071 0.7071 0.7071 1.0042 14.7685)" class="st0" width="4" height="0.9"/>
<rect x="13.7" y="9" transform="matrix(0.7071 -0.7071 0.7071 0.7071 -2.253 13.4117)" class="st0" width="2.6" height="0.9"/>
<rect x="16.1" y="3.4" transform="matrix(0.7071 -0.7071 0.7071 0.7071 2.3798 13.4184)" class="st0" width="2.6" height="0.9"/>
<rect x="3.4" y="2" class="st0" width="0.9" height="0.9"/>
<rect x="5.3" y="2" class="st0" width="0.9" height="0.9"/>
<rect x="7.1" y="2" class="st0" width="0.9" height="0.9"/>
</svg>
