<svg id="Layer_2" data-name="Layer 2" xmlns="http://www.w3.org/2000/svg" viewBox="0 0 29.74 32.67"><defs><style>.cls-1{fill:#e9262c;}</style></defs><title>placematrix</title><path class="cls-1" d="M30.08,31.57h-.92V2.75a.55.55,0,0,0-.55-.55H18.34a.55.55,0,0,0-.55.55V5.14h-1.1V2.75a.55.55,0,0,0-.55-.55H13.75V.55a.55.55,0,1,0-1.1,0V2.2H10.26a.55.55,0,0,0-.55.55V5.14H8.06a.55.55,0,0,0-.55.55v4.59H2.92a.55.55,0,0,0-.55.55V31.57H1.45a.55.55,0,0,0,0,1.1H30.08a.55.55,0,0,0,0-1.1ZM18.89,3.3h9.18V31.57H24V16.7a.55.55,0,1,0-1.1,0v.18h-1.1V16.7a.55.55,0,0,0-1.1,0v.18H18.89V3.3Zm-8.08,0h2.77V5.14H10.81ZM8.61,6.24h9.18V16.89h-4V15.05H15.4a.55.55,0,0,0,0-1.1H13.75V12.12H15.4a.55.55,0,0,0,0-1.1H13.75v-.18a.55.55,0,0,0-.55-.55H8.61ZM3.47,11.38h9.18V31.57H10.08V29.19a.55.55,0,0,0-.55-.55H6.59a.55.55,0,0,0-.55.55v2.39H3.47ZM8.61,31.57v-.92a.55.55,0,1,0-1.1,0v.92H7.14V29.74H9v1.84Zm5.14,0V18h9.18V31.57Z" transform="translate(-0.9)"/><path class="cls-1" d="M16.13,19.09a.55.55,0,0,0-.55.55V29.92a.55.55,0,1,0,1.1,0V19.64A.55.55,0,0,0,16.13,19.09Z" transform="translate(-0.9)"/><path class="cls-1" d="M18.34,19.09a.55.55,0,0,0-.55.55V29.92a.55.55,0,0,0,1.1,0V19.64A.55.55,0,0,0,18.34,19.09Z" transform="translate(-0.9)"/><path class="cls-1" d="M20.54,19.09a.55.55,0,0,0-.55.55V29.92a.55.55,0,1,0,1.1,0V19.64A.55.55,0,0,0,20.54,19.09Z" transform="translate(-0.9)"/><path class="cls-1" d="M21.27,7a.55.55,0,0,0,.55-.55V5.69a.55.55,0,0,0-1.1,0v.73A.55.55,0,0,0,21.27,7Z" transform="translate(-0.9)"/><path class="cls-1" d="M23.48,7A.55.55,0,0,0,24,6.42V5.69a.55.55,0,1,0-1.1,0v.73A.55.55,0,0,0,23.48,7Z" transform="translate(-0.9)"/><path class="cls-1" d="M25.68,7a.55.55,0,0,0,.55-.55V5.69a.55.55,0,1,0-1.1,0v.73A.55.55,0,0,0,25.68,7Z" transform="translate(-0.9)"/><path class="cls-1" d="M21.27,10.65a.55.55,0,0,0,.55-.55V9.36a.55.55,0,0,0-1.1,0v.73A.55.55,0,0,0,21.27,10.65Z" transform="translate(-0.9)"/><path class="cls-1" d="M23.48,10.65A.55.55,0,0,0,24,10.1V9.36a.55.55,0,1,0-1.1,0v.73A.55.55,0,0,0,23.48,10.65Z" transform="translate(-0.9)"/><path class="cls-1" d="M25.68,10.65a.55.55,0,0,0,.55-.55V9.36a.55.55,0,1,0-1.1,0v.73A.55.55,0,0,0,25.68,10.65Z" transform="translate(-0.9)"/><path class="cls-1" d="M21.27,14.32a.55.55,0,0,0,.55-.55V13a.55.55,0,0,0-1.1,0v.73A.55.55,0,0,0,21.27,14.32Z" transform="translate(-0.9)"/><path class="cls-1" d="M23.48,14.32a.55.55,0,0,0,.55-.55V13a.55.55,0,1,0-1.1,0v.73A.55.55,0,0,0,23.48,14.32Z" transform="translate(-0.9)"/><path class="cls-1" d="M25.68,14.32a.55.55,0,0,0,.55-.55V13a.55.55,0,1,0-1.1,0v.73A.55.55,0,0,0,25.68,14.32Z" transform="translate(-0.9)"/><path class="cls-1" d="M5.85,15.79a.55.55,0,0,0,.55-.55V14.5a.55.55,0,1,0-1.1,0v.73A.55.55,0,0,0,5.85,15.79Z" transform="translate(-0.9)"/><path class="cls-1" d="M8.06,15.79a.55.55,0,0,0,.55-.55V14.5a.55.55,0,1,0-1.1,0v.73A.55.55,0,0,0,8.06,15.79Z" transform="translate(-0.9)"/><path class="cls-1" d="M10.26,15.79a.55.55,0,0,0,.55-.55V14.5a.55.55,0,1,0-1.1,0v.73A.55.55,0,0,0,10.26,15.79Z" transform="translate(-0.9)"/><path class="cls-1" d="M5.85,19.46a.55.55,0,0,0,.55-.55v-.73a.55.55,0,1,0-1.1,0v.73A.55.55,0,0,0,5.85,19.46Z" transform="translate(-0.9)"/><path class="cls-1" d="M8.06,19.46a.55.55,0,0,0,.55-.55v-.73a.55.55,0,1,0-1.1,0v.73A.55.55,0,0,0,8.06,19.46Z" transform="translate(-0.9)"/><path class="cls-1" d="M10.26,19.46a.55.55,0,0,0,.55-.55v-.73a.55.55,0,1,0-1.1,0v.73A.55.55,0,0,0,10.26,19.46Z" transform="translate(-0.9)"/><path class="cls-1" d="M5.85,23.13a.55.55,0,0,0,.55-.55v-.73a.55.55,0,1,0-1.1,0v.73A.55.55,0,0,0,5.85,23.13Z" transform="translate(-0.9)"/><path class="cls-1" d="M8.06,23.13a.55.55,0,0,0,.55-.55v-.73a.55.55,0,1,0-1.1,0v.73A.55.55,0,0,0,8.06,23.13Z" transform="translate(-0.9)"/><path class="cls-1" d="M10.26,23.13a.55.55,0,0,0,.55-.55v-.73a.55.55,0,1,0-1.1,0v.73A.55.55,0,0,0,10.26,23.13Z" transform="translate(-0.9)"/><path class="cls-1" d="M6.4,26.25v-.73a.55.55,0,0,0-1.1,0v.73a.55.55,0,1,0,1.1,0Z" transform="translate(-0.9)"/><path class="cls-1" d="M8.06,26.8a.55.55,0,0,0,.55-.55v-.73a.55.55,0,0,0-1.1,0v.73A.55.55,0,0,0,8.06,26.8Z" transform="translate(-0.9)"/><path class="cls-1" d="M10.26,26.8a.55.55,0,0,0,.55-.55v-.73a.55.55,0,0,0-1.1,0v.73A.55.55,0,0,0,10.26,26.8Z" transform="translate(-0.9)"/><path class="cls-1" d="M25.68,18a.55.55,0,0,0,.55-.55V16.7a.55.55,0,1,0-1.1,0v.73A.55.55,0,0,0,25.68,18Z" transform="translate(-0.9)"/><path class="cls-1" d="M25.68,21.66a.55.55,0,0,0,.55-.55v-.73a.55.55,0,1,0-1.1,0v.73A.55.55,0,0,0,25.68,21.66Z" transform="translate(-0.9)"/><path class="cls-1" d="M25.68,25.33a.55.55,0,0,0,.55-.55V24a.55.55,0,1,0-1.1,0v.73A.55.55,0,0,0,25.68,25.33Z" transform="translate(-0.9)"/><path class="cls-1" d="M25.68,29a.55.55,0,0,0,.55-.55v-.73a.55.55,0,1,0-1.1,0v.73A.55.55,0,0,0,25.68,29Z" transform="translate(-0.9)"/><path class="cls-1" d="M15.95,8.63a.55.55,0,0,0-.55-.55H11a.55.55,0,1,0,0,1.1H15.4A.55.55,0,0,0,15.95,8.63Z" transform="translate(-0.9)"/></svg>