<svg id="Layer_1" data-name="Layer 1" xmlns="http://www.w3.org/2000/svg" viewBox="0 0 31.66 31.66"><defs><style>.cls-1{fill:#e9262c;}</style></defs><title>unique-data</title><path class="cls-1" d="M28.2.37a3.45,3.45,0,0,0-3,5.1l-5.66,5.66a4.58,4.58,0,0,0-5.64,0L9.46,6.71a2.25,2.25,0,0,0,.33-1.16,2.3,2.3,0,1,0-2.31,2.3,2.27,2.27,0,0,0,1.16-.33l4.41,4.42a4.57,4.57,0,0,0,0,5.64L5.77,24.87a3.42,3.42,0,1,0,.72.91l7.38-7.39a4.56,4.56,0,0,0,2.25.93v5.85a3.45,3.45,0,1,0,1.15,0V19.32a4.56,4.56,0,0,0,2.25-.93l4.41,4.42A2.28,2.28,0,0,0,23.6,24a2.3,2.3,0,1,0,2.3-2.3,2.25,2.25,0,0,0-1.16.33l-4.42-4.42a4.57,4.57,0,0,0,0-5.64l5.56-5.56a3.45,3.45,0,1,0,2.32-6ZM6.33,5.55A1.15,1.15,0,1,1,7.48,6.7,1.15,1.15,0,0,1,6.33,5.55ZM3.45,29.72a2.3,2.3,0,1,1,2.3-2.3,2.3,2.3,0,0,1-2.3,2.3ZM19,28.57a2.3,2.3,0,1,1-2.3-2.3,2.3,2.3,0,0,1,2.3,2.3Zm-2.3-10.36a3.45,3.45,0,1,1,3.45-3.45,3.46,3.46,0,0,1-3.45,3.45ZM27.05,24a1.15,1.15,0,1,1-1.15-1.15A1.15,1.15,0,0,1,27.05,24ZM28.2,6.12a2.3,2.3,0,1,1,2.3-2.3,2.3,2.3,0,0,1-2.3,2.3Zm0,0" transform="translate(0 -0.37)"/></svg>